<svg viewBox="0 0 349.08 349.08" xml:space="preserve" xmlns="http://www.w3.org/2000/svg"><path d="M198.78 322.44v-58.245c0-7.903 6.406-14.304 14.304-14.304 28.183 0 43.515-28.904 45.643-85.961h-45.643c-7.897 0-14.304-6.41-14.304-14.304V26.636c0-7.9 6.406-14.301 14.304-14.301h121.69c7.896 0 14.305 6.408 14.305 14.301v122.99c0 27.349-2.761 52.446-8.181 74.611-5.568 22.722-14.115 42.587-25.398 59.049-11.604 16.917-26.132 30.192-43.155 39.437-17.152 9.304-37.09 14.026-59.267 14.026-7.891-.006-14.298-6.413-14.298-14.31zM14.3 249.886c-7.897 0-14.301 6.406-14.301 14.298v58.257c0 7.896 6.404 14.298 14.301 14.298 22.166 0 42.114-4.723 59.255-14.026 17.032-9.244 31.558-22.508 43.161-39.437 11.29-16.462 19.836-36.328 25.404-59.061 5.423-22.165 8.178-47.263 8.178-74.6V26.625c0-7.9-6.41-14.301-14.304-14.301H14.304C6.407 12.324.003 18.731.003 26.625v122.99c0 7.899 6.404 14.304 14.301 14.304h45.002c-2.102 57.062-17.213 85.967-45.002 85.967z" fill="#bd4dbf"/></svg>