<?xml version="1.0" encoding="UTF-8"?>
<!DOCTYPE svg  PUBLIC '-//W3C//DTD SVG 1.1//EN'  'http://www.w3.org/Graphics/SVG/1.1/DTD/svg11.dtd'>
<svg enable-background="new 0 0 349.078 349.078" version="1.1" viewBox="0 0 349.08 349.08" xml:space="preserve" xmlns="http://www.w3.org/2000/svg"><path d="m198.78 322.44v-58.245c0-7.903 6.406-14.304 14.304-14.304 28.183 0 43.515-28.904 45.643-85.961h-45.643c-7.897 0-14.304-6.41-14.304-14.304v-122.99c0-7.9 6.406-14.301 14.304-14.301h121.69c7.896 0 14.305 6.408 14.305 14.301v122.99c0 27.349-2.761 52.446-8.181 74.611-5.568 22.722-14.115 42.587-25.398 59.049-11.604 16.917-26.132 30.192-43.155 39.437-17.152 9.304-37.09 14.026-59.267 14.026-7.891-6e-3 -14.298-6.413-14.298-14.31zm-184.48-72.554c-7.897 0-14.301 6.406-14.301 14.298v58.257c0 7.896 6.404 14.298 14.301 14.298 22.166 0 42.114-4.723 59.255-14.026 17.032-9.244 31.558-22.508 43.161-39.437 11.29-16.462 19.836-36.328 25.404-59.061 5.423-22.165 8.178-47.263 8.178-74.6v-122.99c0-7.9-6.41-14.301-14.304-14.301h-121.69c-7.897 0-14.301 6.407-14.301 14.301v122.99c0 7.899 6.404 14.304 14.301 14.304h45.002c-2.102 57.062-17.213 85.967-45.002 85.967z" fill="#bd4dbf"></path></svg>
